<svg width="100" height="65" viewBox="0 0 100 65" fill="none" xmlns="http://www.w3.org/2000/svg">
<g clip-path="url(#clip0_33_5235)">
<path d="M29.734 46.6528C30.5393 45.2925 30.9358 43.4671 30.9358 41.1708C30.9358 39.4732 30.6247 37.9443 30.0878 36.6653C29.5083 35.3922 28.7518 34.369 27.7696 33.5203C26.7875 32.7529 25.6284 32.1599 24.2923 31.7355C22.9075 31.3519 21.4373 31.1426 19.9244 31.1426H0V65H9.27282V54.3789L17.7404 52.5941L23.2674 65H32.9429L26.1652 50.0479C27.7269 49.1991 28.9287 48.0945 29.734 46.647V46.6528ZM20.8638 43.7635C20.2843 44.4437 19.2594 44.9088 17.7404 45.1646L9.27282 46.6528V38.4559H18.6798C19.5705 38.4559 20.327 38.7524 20.9065 39.3046C21.4434 39.8976 21.7118 40.6243 21.7118 41.3858C21.7118 42.3218 21.4007 43.0834 20.8638 43.7635Z" fill="#222222"/>
<path d="M48.5604 56.8263L42.1366 42.409H34.8525V65H42.1915V57.2216L45.9921 65H51.1532L54.9538 57.2216V65H62.2928V42.409H55.0087L48.5604 56.8263Z" fill="#222222"/>
<path d="M93.4359 50.7687L93.0576 51.3617C92.472 52.2802 91.8985 53.0592 91.319 53.7278C90.6784 54.4196 89.9646 55.0242 89.2692 55.4718C88.4517 55.9776 87.622 56.3438 86.7924 56.5589C85.8834 56.8147 84.8707 56.9368 83.6994 56.9368C82.2414 56.9368 81.0091 56.71 79.911 56.2159C78.7702 55.7799 77.7941 55.123 76.9827 54.2335C76.153 53.3964 75.5369 52.4197 75.1403 51.2919C74.695 50.2106 74.4754 49.0131 74.4754 47.6178C74.4754 46.2226 74.7011 44.996 75.1464 43.8856C75.5796 42.7636 76.1957 41.7928 77.0376 40.9091C77.8124 40.0894 78.7458 39.4558 79.8805 38.9674C81.0335 38.4907 82.2902 38.2524 83.614 38.2524C85.8224 38.2524 87.6953 38.7407 89.1655 39.7116C90.6296 40.694 91.8802 42.0486 92.8807 43.7286L93.2406 44.3391L99.9695 38.9326L99.6401 38.4907C97.5903 35.7933 95.2416 33.7121 92.6611 32.3111C90.044 30.9275 86.9327 30.2299 83.4066 30.2299C80.8382 30.2299 78.3431 30.66 75.9883 31.5146C75.9456 31.5321 75.9029 31.5553 75.8602 31.5669C75.6711 31.3112 75.4698 31.0554 75.2685 30.7879C74.8597 30.2357 74.4327 29.6601 74.0178 29.1021C73.7372 28.7184 73.4688 28.3347 73.2065 27.9394C73.6152 28.2649 74.0361 28.4916 74.451 28.5847C77.8917 29.3346 79.8866 28.5149 79.8866 28.5149L79.5815 27.7359C82.1804 26.5209 83.2358 22.8817 81.9241 19.318C81.2714 17.5449 80.1367 16.0393 78.7275 15.08C77.2633 14.086 75.6772 13.7895 74.2314 14.2255L74.03 13.7255H72.5476C68.8019 13.772 68.8019 16.4346 68.8019 16.4346H67.4415C67.0205 15.58 66.7338 15.0219 66.7338 15.0219C65.9041 12.6442 65.5503 11.1385 65.5381 11.092C65.2392 9.72587 63.9825 8.75503 62.5183 8.75503H62.195C62.0059 7.41213 61.6582 5.44719 61.164 4.64493C60.4686 3.51713 59.4559 3.04624 58.6628 2.89509C58.553 1.76147 57.7355 1.22082 56.5581 0.906897L53.7214 0.15115C52.1352 -0.279044 51.2018 0.156964 50.9395 1.91262L50.8297 2.62186C50.5674 4.37752 51.0859 5.30185 52.7148 5.44719L55.6186 5.71461C56.796 5.82506 57.8758 5.69717 58.37 4.70888C58.3822 4.67982 58.3944 4.65656 58.4066 4.62749C58.736 4.70888 59.2179 4.92398 59.584 5.52858C59.8585 5.9704 60.1452 7.40632 60.3465 8.76666L56.3995 8.7841C56.2592 8.45855 55.9176 8.24345 55.5393 8.24926C53.9898 8.27833 50.3295 8.19113 46.5959 6.93543C46.1262 6.77846 45.6015 6.99938 45.4185 7.44701L43.4664 11.4757C43.2467 12.0047 43.5884 12.5803 44.174 12.6791C45.9188 12.964 53.7092 14.0336 56.43 14.0627L56.8753 13.0802L60.1086 13.5279C60.1086 13.5279 60.1147 13.5279 60.1147 13.5337C60.4563 14.6673 60.9444 17.295 61.6033 19.0216L61.591 19.0448C57.7721 18.5042 46.1994 19.0971 39.3241 23.9339C37.683 25.0908 35.8163 26.1372 33.8885 27.0906C31.9546 28.044 31.4056 28.2358 27.5562 29.0032C28.9593 29.7764 34.4925 31.5437 34.4681 39.0663C34.4681 39.0779 36.5361 39.0895 36.5483 39.0895L62.2621 39.3511C62.2621 39.3511 62.2804 39.3511 62.2804 39.3453C62.3048 39.1128 64.2936 36.2235 68.1735 32.3111C69.3326 33.654 69.4424 33.6365 70.1928 34.5027C70.2599 34.5783 70.3331 34.6713 70.4124 34.7585C70.2782 34.869 70.1379 34.9736 70.0098 35.0899C68.2955 36.6479 66.99 38.4559 66.02 40.6068C65.0318 42.7578 64.5498 45.0541 64.5498 47.6236C64.5498 50.1932 65.0318 52.5244 66.02 54.623C66.99 56.8263 68.3016 58.6343 70.0098 60.1516C71.6752 61.6631 73.6884 62.8665 75.9944 63.721C78.3431 64.5756 80.8382 65.0058 83.4066 65.0058C87.0059 65.0058 90.1904 64.2791 92.8807 62.8374C95.4978 61.3782 97.7184 59.3959 99.6828 56.7798L100 56.3554L93.4359 50.7745V50.7687ZM77.666 16.5043C78.7702 17.2543 79.673 18.4577 80.1977 19.8936C81.1494 22.4922 80.5637 25.1838 78.9288 26.0907L74.878 15.8649C75.0915 15.8125 75.3112 15.7777 75.5369 15.7777C76.2201 15.7777 76.9522 16.0276 77.666 16.5043Z" fill="#222222"/>
</g>
<defs>
<clipPath id="clip0_33_5235">
<rect width="100" height="65" fill="white"/>
</clipPath>
</defs>
</svg>
