<svg width="19" height="20" viewBox="0 0 19 20" fill="none" xmlns="http://www.w3.org/2000/svg">
<path d="M0.833333 20C0.594444 20 0.394444 19.9222 0.238889 19.7667C0.0833333 19.6111 0 19.4111 0 19.1667V1.66667C0 1.22222 0.166667 0.833333 0.5 0.5C0.833333 0.166667 1.22222 0 1.66667 0H9.13889C9.58333 0 9.97222 0.166667 10.3056 0.5C10.6389 0.833333 10.8056 1.22222 10.8056 1.66667V9.66667H12.6111C13 9.66667 13.3278 9.8 13.5944 10.0722C13.8611 10.3389 14 10.6667 14 11.0556V17.1389C14 17.5444 14.1444 17.8833 14.4278 18.1556C14.7167 18.4222 15.0611 18.5611 15.4722 18.5611C15.8833 18.5611 16.2278 18.4278 16.5167 18.1556C16.8056 17.8889 16.95 17.55 16.95 17.1389V8.94444C16.7444 9.05556 16.5333 9.13889 16.3111 9.19444C16.0889 9.25 15.8667 9.27778 15.6444 9.27778C14.9222 9.27778 14.3056 9.02222 13.7944 8.51111C13.2833 8 13.0333 7.38889 13.0278 6.66111C13.0278 6.06667 13.1944 5.53889 13.5278 5.07778C13.8611 4.61667 14.3056 4.31111 14.8611 4.16111L12.7222 2.02222C12.5722 1.87222 12.5 1.70556 12.5 1.52222C12.5 1.33889 12.5722 1.17222 12.7222 1.02222C12.85 0.872222 13.0167 0.805556 13.2111 0.811111C13.4056 0.822222 13.5778 0.9 13.7278 1.05L17.4778 4.8C17.7389 5.06111 17.9444 5.34444 18.1 5.64444C18.2556 5.95 18.3333 6.28889 18.3333 6.66111V17.1389C18.3333 17.9333 18.0556 18.6111 17.5 19.1667C16.9444 19.7222 16.2667 20 15.4722 20C14.6778 20 14 19.7222 13.4444 19.1667C12.8889 18.6111 12.6111 17.9333 12.6111 17.1389V11.0556H10.8056V19.1667C10.8056 19.4056 10.7278 19.6056 10.5667 19.7667C10.4111 19.9222 10.2111 20 9.97222 20H0.833333ZM1.66667 8H9.13889V1.66667H1.66667V8ZM15.6389 7.88889C15.9722 7.88889 16.2611 7.76667 16.5 7.52778C16.7389 7.28889 16.8611 7 16.8611 6.66667C16.8611 6.33333 16.7389 6.04444 16.5 5.80556C16.2611 5.56667 15.9722 5.44444 15.6389 5.44444C15.3056 5.44444 15.0167 5.56667 14.7778 5.80556C14.5389 6.04444 14.4167 6.33333 14.4167 6.66667C14.4167 7 14.5389 7.28889 14.7778 7.52778C15.0167 7.76667 15.3056 7.88889 15.6389 7.88889ZM1.66667 18.3333H9.13889V9.66667H1.66667V18.3333Z" fill="#999999"/>
</svg>
