<svg width="18" height="20" viewBox="0 0 18 20" fill="none" xmlns="http://www.w3.org/2000/svg">
<path d="M7.86486 20C5.64865 19.8216 3.78378 18.9081 2.27027 17.2703C0.756757 15.6324 0 13.6865 0 11.4324C0 10.0432 0.318919 8.74054 0.956757 7.51351C1.59459 6.28649 2.49189 5.28649 3.64865 4.51351L4.81081 5.67568C3.8 6.27027 3.01622 7.08649 2.45946 8.11892C1.9027 9.15676 1.62162 10.2595 1.62162 11.427C1.62162 13.227 2.21622 14.7892 3.40541 16.1027C4.59459 17.4162 6.08108 18.173 7.86486 18.373V19.9946V20ZM9.48649 20V18.3784C11.2865 18.1622 12.773 17.4 13.9459 16.0919C15.1189 14.7838 15.7027 13.2324 15.7027 11.4324C15.7027 9.47027 15.0216 7.80541 13.6649 6.44865C12.3027 5.08649 10.6432 4.40541 8.67567 4.40541H8.13513L9.75676 6.02703L8.59459 7.18919L5 3.59459L8.59459 0L9.75676 1.16216L8.13513 2.78378H8.67567C11.0919 2.78378 13.1351 3.62703 14.8108 5.31351C16.4865 7 17.3243 9.03784 17.3243 11.4324C17.3243 13.6865 16.573 15.6324 15.0703 17.2703C13.5676 18.9081 11.7027 19.8216 9.48649 20Z" fill="#999999"/>
</svg>
