<svg width="20" height="20" viewBox="0 0 20 20" fill="none" xmlns="http://www.w3.org/2000/svg">
<path d="M1.63711 18.3616H2.83765L16.0709 5.12105L15.4707 4.52045L14.8704 3.91985L1.63711 17.1604V18.3616ZM0 19.9996V16.5052L16.0437 0.45275C16.3547 0.14153 16.7367 -0.0113504 17.206 -0.00043036C17.6698 0.0104896 18.0573 0.16883 18.3629 0.48005L19.5362 1.65395C19.8472 1.96517 20 2.34737 20 2.80055C20 3.25373 19.8472 3.63593 19.5362 3.94715L3.4925 19.9996H0ZM18.281 2.77325L17.1623 1.65395L18.281 2.77325ZM16.0709 5.12105L15.4707 4.52045L14.8704 3.91985L16.0709 5.12105Z" fill="#999999"/>
</svg>
