<svg width="30" height="18" viewBox="0 0 30 18" fill="none" xmlns="http://www.w3.org/2000/svg">
<path d="M29.9341 12.6349C29.609 10.7153 28.0317 9.19439 26.0503 8.88622C25.201 8.75448 24.3857 8.84152 23.6528 9.10029C23.5934 9.12029 23.5266 9.10265 23.4878 9.05324C23.3119 8.83094 23.1699 8.64862 23.1444 8.62039L23.1311 8.60392C23.0826 8.53923 23.0328 8.47219 22.9831 8.40279C22.8727 8.25223 22.7586 8.09461 22.647 7.94288C22.5718 7.8382 22.5002 7.73351 22.4298 7.6253C22.539 7.71469 22.6518 7.77586 22.7635 7.80173C23.472 7.95935 23.9513 7.86407 24.1369 7.81114C24.183 7.7982 24.2085 7.7488 24.1903 7.70411L24.1648 7.63706C24.1503 7.59825 24.1673 7.55708 24.2037 7.53708C24.8528 7.17598 25.1076 6.21382 24.7679 5.27284C24.5931 4.78823 24.2886 4.37772 23.91 4.1166C23.5169 3.84607 23.0911 3.76491 22.704 3.88253L22.6967 3.86371C22.6688 3.79314 22.5985 3.74609 22.5196 3.74609H22.2527C21.5247 3.75668 21.3245 4.14013 21.2687 4.35067C21.2468 4.43066 21.1728 4.48594 21.0867 4.48594H21.003C20.9289 4.48594 20.8622 4.44477 20.8307 4.38008C20.7615 4.23775 20.7118 4.14013 20.6972 4.11072L20.6887 4.09072C20.4691 3.44733 20.3757 3.04035 20.372 3.02859C20.292 2.65572 19.9547 2.39107 19.5615 2.39107H19.4754C19.4232 2.02291 19.3298 1.4889 19.1976 1.26895C19.035 1.00077 18.8069 0.869028 18.6115 0.811392C18.563 0.798454 18.5254 0.759638 18.5145 0.711413C18.4574 0.456171 18.25 0.327961 17.9624 0.249154L17.2017 0.0421373C16.7758 -0.0754858 16.5258 0.0433136 16.4555 0.523216L16.4264 0.716118C16.356 1.19602 16.4943 1.44773 16.9311 1.48773L17.7112 1.56065C18.0267 1.59123 18.3167 1.55595 18.4489 1.28659C18.4526 1.27836 18.455 1.2713 18.4574 1.26424C18.546 1.28541 18.6746 1.3454 18.7741 1.51007C18.836 1.61241 18.9015 1.9147 18.9537 2.22993C18.967 2.31579 18.9003 2.39342 18.8105 2.39342L18.0012 2.39695C17.9539 2.39695 17.9127 2.37343 17.8823 2.33814C17.8362 2.28286 17.7658 2.2511 17.6894 2.2511C17.2732 2.25933 16.2917 2.23463 15.2895 1.89235C15.1645 1.85 15.0238 1.90999 14.974 2.03232L14.4499 3.1321C14.3916 3.2756 14.4826 3.43321 14.6404 3.46026C15.0881 3.53554 17.0245 3.80608 17.8289 3.83548C17.8884 3.83783 17.943 3.80372 17.9673 3.75079L18.0024 3.66963C18.0291 3.61082 18.0922 3.57671 18.1565 3.58494L18.9149 3.69198C18.9149 3.69198 18.9173 3.69198 18.9173 3.69316C18.9816 3.91311 19.0653 4.33656 19.1733 4.73295C19.2109 4.87057 19.0823 4.98937 18.9403 4.95761C18.9112 4.95173 18.8821 4.94584 18.8542 4.94232C18.8542 4.94232 13.3106 3.93429 12.2441 6.69137C12.215 6.76665 12.1422 6.81723 12.0584 6.8137C10.9992 6.75724 8.67695 6.63374 8.16008 6.59257C7.71844 6.55846 7.40298 6.15266 7.23797 5.87742C7.13726 5.70687 6.95526 5.55631 6.75385 5.58101C5.0625 5.78567 3.07996 6.54905 2.27553 6.88192C2.14571 6.93485 2.16269 7.11834 2.30101 7.14657C3.51189 7.40299 7.05112 7.88407 8.44035 8.77683C8.52165 8.82858 8.5265 8.9415 8.45249 9.00149C8.18071 9.21909 7.90286 9.4414 7.62865 9.65783C7.57769 9.69782 7.50732 9.69899 7.45393 9.66371C7.10571 9.42493 6.72473 9.22968 6.31585 9.08853C6.20908 9.05207 6.09988 9.01913 5.98947 8.98973C5.95186 8.98032 5.91303 8.96973 5.87542 8.96032L5.86086 8.95679C5.82082 8.94856 5.77957 8.93915 5.73953 8.93092C5.7007 8.92268 5.66188 8.91562 5.62305 8.90739C5.58301 8.90033 5.54055 8.89328 5.49929 8.88622C5.45804 8.87916 5.41558 8.87328 5.37432 8.86858C5.33186 8.86269 5.2906 8.85799 5.24814 8.85328C5.20567 8.84858 5.16321 8.84505 5.12074 8.84152C5.07828 8.83799 5.0346 8.83564 4.99213 8.83329C4.90599 8.82858 4.81863 8.82623 4.73127 8.82623C4.5153 8.82623 4.30297 8.84035 4.09428 8.8674C3.98751 8.88151 3.88317 8.89916 3.77882 8.91915C3.71088 8.93209 3.64293 8.94738 3.5762 8.96385C3.44395 8.99561 3.31412 9.03325 3.18673 9.07559C1.10712 9.77192 -0.314883 11.8327 0.0600293 14.1534C0.377916 16.1294 2.02438 17.6868 4.0688 17.9561C6.57914 18.2867 8.77159 16.707 9.32728 14.5039C9.32728 14.5039 9.37703 14.3075 9.41221 14.0699C9.41585 14.0487 15.0759 14.2557 16.2456 13.9628C17.2223 13.7582 18.0534 13.283 18.5023 12.1973L18.4162 12.4137C18.4162 12.4137 18.4235 12.4161 18.4271 12.4184L18.7608 11.5904L18.7729 11.5586C18.7729 11.5586 18.7632 11.5551 18.7608 11.5539C18.9173 11.154 19.0629 10.7635 19.1963 10.393C19.6914 9.01443 20.0141 7.91583 20.0808 7.68529C20.0881 7.66294 20.099 7.64294 20.116 7.62647C20.1391 7.60413 20.1621 7.5806 20.1864 7.5559C20.3805 7.78409 21.4021 9.09441 22.0318 9.8966C22.0755 9.95306 22.0682 10.033 22.0149 10.0824C20.9471 11.0622 20.3502 12.5184 20.588 14.0993C20.8889 16.1106 22.5608 17.7021 24.6405 17.9608C27.8036 18.3549 30.4558 15.7178 29.9341 12.6349ZM23.0547 4.3048C23.2379 4.3048 23.4344 4.37302 23.6249 4.50476C23.9222 4.70942 24.1624 5.03759 24.3044 5.43045C24.3881 5.66217 24.4269 5.89624 24.4269 6.11502C24.4269 6.47259 24.3214 6.79017 24.1321 6.99013C24.0605 7.06424 23.9307 7.03483 23.8931 6.93956L22.8775 4.3295C22.9345 4.31538 22.994 4.3048 23.0547 4.3048ZM6.0744 15.3708C6.0101 15.4119 5.94336 15.4508 5.87542 15.486C5.80747 15.5213 5.7371 15.5543 5.66552 15.5837C5.59636 15.6119 5.52477 15.6378 5.45319 15.659C5.44955 15.6601 5.44591 15.6613 5.44348 15.6613C5.40587 15.6719 5.36826 15.6825 5.33064 15.6919C5.13773 15.7401 4.93753 15.7648 4.73006 15.7648C4.56383 15.7648 4.40125 15.7484 4.24352 15.7166C3.04598 15.4813 2.16876 14.3933 2.31678 13.1336C2.43811 12.0997 3.26438 11.2528 4.3236 11.0869C5.47503 10.907 6.50513 11.508 6.93949 12.4314C6.95405 12.462 6.92736 12.4961 6.89339 12.4914L4.91448 12.262C4.89628 12.2596 4.87929 12.2691 4.8708 12.2843L4.43643 13.6288C4.42309 13.6535 4.43643 13.6829 4.46313 13.6899C5.17291 13.8652 5.92516 13.8617 7.04384 13.9358C7.07174 13.9381 7.09115 13.9628 7.08509 13.9887C6.93585 14.5627 6.56822 15.052 6.0744 15.3708ZM9.82474 12.8325L9.45104 12.789C9.43163 12.7866 9.41586 12.7725 9.41343 12.7525C9.32243 12.1314 9.10039 11.5492 8.77765 11.034C8.72912 10.9576 8.74368 10.8588 8.81405 10.7999C9.01546 10.6329 9.2193 10.46 9.42314 10.2848C9.49593 10.2212 9.6112 10.2436 9.65245 10.3295C9.97034 10.9917 10.179 11.4257 10.3161 11.7115C10.4581 12.0079 10.5734 12.3149 10.6741 12.6266C10.6935 12.6866 10.7165 12.749 10.7408 12.8125C10.7517 12.8407 10.7299 12.8725 10.6983 12.8701L9.82838 12.8313H9.82474V12.8325ZM19.0568 8.54864C19.0022 8.71684 18.944 8.8968 18.876 9.10029C18.8505 9.1791 18.7729 9.23085 18.688 9.22733C17.7343 9.18381 12.4249 8.98737 11.959 11.5668C11.8874 11.9621 11.8752 12.2961 11.9068 12.5784C11.9335 12.8184 11.5889 12.916 11.4809 12.6984C11.4797 12.696 11.4773 12.6925 11.4761 12.689C11.2637 12.2549 11.2492 11.7892 11.2492 11.7892V11.7703C11.1497 9.45551 11.5865 8.7533 11.7782 8.55923C11.8485 8.48983 12.0888 8.48512 12.0888 8.48512L18.9149 8.36632C19.0143 8.36515 19.0859 8.45689 19.0568 8.54864ZM24.8698 15.7342C23.8542 15.5766 23.0413 14.7933 22.8751 13.8087C22.6251 12.3385 23.796 11.0599 25.2677 11.0599C26.606 11.0599 27.6944 12.1161 27.6944 13.4124C27.6944 14.8368 26.384 15.9683 24.8698 15.7342Z" fill="white"/>
</svg>
