<svg width="40" height="37" viewBox="0 0 40 37" fill="none" xmlns="http://www.w3.org/2000/svg">
<path d="M33.3634 10.5192V6.63657H29.4808V3.92777H33.3634V0H36.0722V3.92777H40V6.63657H36.0722V10.5192H33.3634ZM2.7088 36.4334C1.98646 36.4334 1.3544 36.1625 0.812641 35.6208C0.27088 35.079 0 34.447 0 33.7246V10.5643C0 9.86907 0.27088 9.24605 0.812641 8.68623C1.3544 8.12641 1.98646 7.85553 2.7088 7.85553H9.34537L12.6411 3.92777H25.2822V6.63657H13.9052L10.6095 10.5643H2.7088V33.7246H33.4086V14.763H36.1174V33.7246C36.1174 34.447 35.8375 35.079 35.2867 35.6208C34.7269 36.1625 34.1038 36.4334 33.4086 36.4334H2.7088ZM18.0587 29.842C20.2257 29.842 22.0497 29.1016 23.5214 27.6298C24.9932 26.158 25.7336 24.316 25.7336 22.1219C25.7336 19.9549 24.9932 18.14 23.5214 16.6862C22.0497 15.2325 20.2257 14.5011 18.0587 14.5011C15.8916 14.5011 14.0316 15.2325 12.5688 16.6862C11.1061 18.149 10.3747 19.9549 10.3747 22.1219C10.3747 24.2889 11.1061 26.158 12.5688 27.6298C14.0316 29.1016 15.8555 29.842 18.0587 29.842ZM18.0587 27.1332C16.614 27.1332 15.4221 26.6546 14.4921 25.7065C13.5621 24.7585 13.0926 23.5576 13.0926 22.1129C13.0926 20.6682 13.5621 19.5214 14.4921 18.5914C15.4221 17.6614 16.614 17.1919 18.0587 17.1919C19.4763 17.1919 20.6501 17.6614 21.5982 18.5914C22.5463 19.5214 23.0248 20.6953 23.0248 22.1129C23.0248 23.5576 22.5553 24.7494 21.5982 25.7065C20.6501 26.6546 19.4673 27.1332 18.0587 27.1332Z" fill="#999999"/>
</svg>
