<svg width="14" height="15" viewBox="0 0 14 15" fill="none" xmlns="http://www.w3.org/2000/svg">
<path d="M7.03714 11.134C7.1565 11.018 7.29576 10.9601 7.45491 10.9601C7.61406 10.9601 7.75332 11.018 7.87268 11.134L9.82228 13.0284L9.82228 1.06314C9.82228 0.896907 9.87798 0.757732 9.99337 0.649484C10.1048 0.541237 10.248 0.483247 10.4191 0.483247C10.5902 0.483247 10.7334 0.537371 10.8488 0.649484C10.9602 0.757732 11.0159 0.896907 11.0159 1.06314L11.0159 13.0284L13.0053 11.0954C13.1127 10.991 13.244 10.9407 13.4032 10.9407C13.5623 10.9407 13.7016 10.9987 13.821 11.1147C13.9403 11.2307 14 11.366 14 11.5206C14 11.6753 13.9403 11.8106 13.821 11.9265L10.8369 14.826C10.7692 14.8918 10.7056 14.9343 10.6379 14.9613C10.5703 14.9884 10.4987 15 10.4191 15C10.3395 15 10.2679 14.9884 10.2003 14.9613C10.1326 14.9343 10.069 14.8918 10.0013 14.826L7.01724 11.9265C6.90982 11.8222 6.85809 11.6946 6.85809 11.5399C6.85809 11.3853 6.91777 11.25 7.03714 11.134ZM0.332893 3.05412L3.29708 0.173969C3.36472 0.108247 3.42838 0.0657212 3.49602 0.0386593C3.56366 0.0115975 3.63528 -4.53056e-07 3.71486 -4.49578e-07C3.79443 -4.461e-07 3.86605 0.0115975 3.93369 0.0386594C4.00133 0.0657212 4.06499 0.108247 4.13263 0.173969L7.13661 3.09278C7.24403 3.19716 7.29576 3.32474 7.29576 3.47938C7.29576 3.63402 7.23608 3.76933 7.11671 3.88531C6.99735 4.00129 6.85809 4.05928 6.69894 4.05928C6.53979 4.05928 6.40053 4.00129 6.28117 3.88531L4.31167 1.97165L4.31167 13.9369C4.31167 14.1031 4.25597 14.2423 4.14456 14.3505C4.03316 14.4588 3.88992 14.5168 3.71485 14.5168C3.53979 14.5168 3.40053 14.4626 3.28515 14.3505C3.16976 14.2384 3.11804 14.1031 3.11804 13.9369L3.11804 1.97165L1.14854 3.88531C1.04112 3.98969 0.909817 4.03995 0.750665 4.03995C0.591513 4.03995 0.452257 3.98196 0.332893 3.86598C0.21353 3.75 0.153848 3.61469 0.153848 3.46005C0.153849 3.30541 0.21353 3.1701 0.332893 3.05412Z" fill="#222222"/>
</svg>
