<svg width="15" height="17" viewBox="0 0 15 17" fill="none" xmlns="http://www.w3.org/2000/svg">
<path d="M7.4569 12.4138C7.58621 12.2845 7.73707 12.2198 7.90948 12.2198C8.0819 12.2198 8.23276 12.2845 8.36207 12.4138L10.4741 14.5259L10.4741 1.18534C10.4741 1 10.5345 0.844827 10.6595 0.724138C10.7802 0.603448 10.9353 0.538793 11.1207 0.538793C11.306 0.538793 11.4612 0.599138 11.5862 0.724138C11.7069 0.844827 11.7672 1 11.7672 1.18534L11.7672 14.5259L13.9224 12.3707C14.0388 12.2543 14.181 12.1983 14.3534 12.1983C14.5259 12.1983 14.6767 12.2629 14.806 12.3922C14.9353 12.5216 15 12.6724 15 12.8448C15 13.0172 14.9353 13.1681 14.806 13.2974L11.5733 16.5302C11.5 16.6034 11.431 16.6509 11.3578 16.681C11.2845 16.7112 11.2069 16.7241 11.1207 16.7241C11.0345 16.7241 10.9569 16.7112 10.8836 16.681C10.8103 16.6509 10.7414 16.6034 10.6681 16.5302L7.43534 13.2974C7.31896 13.181 7.26293 13.0388 7.26293 12.8664C7.26293 12.694 7.32759 12.5431 7.4569 12.4138ZM0.193965 3.40517L3.40517 0.193965C3.47845 0.120689 3.54741 0.0732754 3.62069 0.043103C3.69396 0.0129305 3.77155 -4.90811e-07 3.85776 -4.87043e-07C3.94396 -4.83275e-07 4.02155 0.0129306 4.09483 0.043103C4.1681 0.0732754 4.23707 0.120689 4.31034 0.193965L7.56465 3.44828C7.68103 3.56465 7.73707 3.7069 7.73707 3.87931C7.73707 4.05172 7.67241 4.20259 7.5431 4.3319C7.41379 4.46121 7.26293 4.52586 7.09052 4.52586C6.9181 4.52586 6.76724 4.46121 6.63793 4.3319L4.50431 2.19828L4.50431 15.5388C4.50431 15.7241 4.44396 15.8793 4.32327 16C4.20258 16.1207 4.04741 16.1853 3.85776 16.1853C3.6681 16.1853 3.51724 16.125 3.39224 16C3.26724 15.875 3.21121 15.7241 3.21121 15.5388L3.21121 2.19828L1.07759 4.3319C0.961206 4.44828 0.818965 4.50431 0.646551 4.50431C0.474137 4.50431 0.323275 4.43965 0.193965 4.31034C0.0646551 4.18103 -1.76164e-07 4.03017 -1.68628e-07 3.85776C-1.61092e-07 3.68534 0.0646551 3.53448 0.193965 3.40517Z" fill="#222222"/>
</svg>
