<svg width="25" height="25" viewBox="0 0 25 25" fill="none" xmlns="http://www.w3.org/2000/svg">
<path d="M23.4722 25L14.3403 15.8681C13.6458 16.4722 12.8333 16.9375 11.9097 17.2778C10.9861 17.6111 10 17.7778 8.95833 17.7778C6.45833 17.7778 4.34028 16.9097 2.60417 15.1736C0.868056 13.4375 0 11.3403 0 8.88889C0 6.4375 0.868056 4.34028 2.60417 2.60417C4.34028 0.868056 6.44444 0 8.92361 0C11.375 0 13.4653 0.868056 15.1875 2.60417C16.9097 4.34028 17.7778 6.4375 17.7778 8.88889C17.7778 9.88194 17.6181 10.8472 17.2917 11.7708C16.9653 12.6944 16.4792 13.5625 15.8333 14.375L25 23.4722L23.4722 25V25ZM8.92361 15.6944C10.7986 15.6944 12.3958 15.0278 13.7153 13.6944C15.0347 12.3611 15.6944 10.7569 15.6944 8.88889C15.6944 7.02083 15.0347 5.40972 13.7153 4.07639C12.3958 2.74306 10.7986 2.07639 8.92361 2.07639C7.04861 2.07639 5.40972 2.74306 4.07639 4.07639C2.74306 5.40972 2.07639 7.01389 2.07639 8.88889C2.07639 10.7639 2.74306 12.3681 4.07639 13.6944C5.40972 15.0278 7.02083 15.6875 8.92361 15.6944Z" fill="#333333"/>
</svg>
