<svg width="150" height="90" viewBox="0 0 150 90" fill="none" xmlns="http://www.w3.org/2000/svg">
<path d="M149.671 63.1743C148.045 53.5763 140.158 45.9719 130.252 44.4311C126.005 43.7724 121.928 44.2076 118.264 45.5015C117.967 45.6014 117.633 45.5132 117.439 45.2662C116.559 44.1547 115.85 43.2431 115.722 43.102L115.655 43.0196C115.413 42.6961 115.164 42.3609 114.915 42.0139C114.363 41.2611 113.793 40.4731 113.235 39.7144C113.231 39.7089 113.227 39.7034 113.223 39.6979C113.026 39.4235 113.488 38.9324 113.817 39.0087V39.0087C117.36 39.7967 119.756 39.3204 120.685 39.0557C120.915 38.991 121.043 38.744 120.952 38.5205L120.824 38.1853C120.751 37.9912 120.836 37.7854 121.018 37.6854C124.264 35.8799 125.538 31.0691 123.839 26.3642C122.966 23.9411 121.443 21.8886 119.55 20.583C117.617 19.2529 115.526 18.8383 113.617 19.3841C113.562 19.3997 113.504 19.3716 113.484 19.3186V19.3186C113.344 18.9657 112.992 18.7304 112.598 18.7304H111.263C107.623 18.7834 106.622 20.7006 106.343 21.7534C106.234 22.1533 105.864 22.4297 105.433 22.4297H105.015C104.645 22.4297 104.311 22.2238 104.153 21.9004C103.808 21.1888 103.559 20.7006 103.486 20.5536L103.444 20.4536C102.345 17.2366 101.878 15.2017 101.86 15.1429C101.46 13.2786 99.7733 11.9554 97.8077 11.9554V11.9554C97.5606 11.9554 97.3515 11.7739 97.315 11.5296C97.0452 9.72408 96.5996 7.36228 95.9877 6.34473C95.1748 5.00383 94.0343 4.34514 93.0576 4.05696C92.8149 3.99227 92.6269 3.79819 92.5723 3.55706C92.2872 2.28085 91.2498 1.63981 89.812 1.24577L86.0083 0.210687C83.8789 -0.377429 82.6292 0.216568 82.2774 2.61608L82.1318 3.58059C81.7799 5.9801 82.4715 7.23867 84.6554 7.43863L88.5562 7.80326C90.1335 7.95617 91.5834 7.77973 92.2447 6.43295V6.43295C92.2721 6.37091 92.3375 6.3328 92.4025 6.3521C92.8368 6.48102 93.4148 6.79601 93.8705 7.55037C94.1799 8.06203 94.5075 9.57348 94.7684 11.1496C94.8351 11.579 94.5014 11.9671 94.0525 11.9671L90.0061 11.9848C89.7695 11.9848 89.5633 11.8671 89.4116 11.6907C89.1811 11.4143 88.8292 11.2555 88.447 11.2555C86.3662 11.2967 81.4584 11.1732 76.4474 9.46174C75.8226 9.25002 75.1188 9.54996 74.8701 10.1616L72.2494 15.6605C71.9582 16.378 72.4132 17.1661 73.2018 17.3013C75.4404 17.6777 85.1226 19.0304 89.1447 19.1774C89.4419 19.1892 89.7149 19.0186 89.8363 18.754L90.0122 18.3482C90.1457 18.0541 90.4611 17.8836 90.7826 17.9247L94.5708 18.4594C94.5731 18.4597 94.5753 18.4604 94.5774 18.4614V18.4614C94.5831 18.4642 94.5873 18.469 94.5891 18.4751C94.9103 19.5775 95.328 21.6884 95.8664 23.6647C96.0545 24.3528 95.4114 24.9468 94.7016 24.788C94.6912 24.7859 94.6809 24.7838 94.6705 24.7817C94.4053 24.7283 94.1502 24.6894 93.8832 24.6461C90.5126 24.1 66.1809 20.6331 61.2204 33.4569C61.0748 33.8332 60.7108 34.0861 60.2922 34.0685C54.9961 33.7862 43.3847 33.1687 40.8004 32.9628C38.5922 32.7923 37.0149 30.7633 36.1898 29.3871C35.6863 28.5343 34.7763 27.7815 33.7693 27.905C25.3125 28.9284 15.3998 32.7452 11.3777 34.4096C10.7285 34.6743 10.8135 35.5917 11.5051 35.7329C17.5595 37.015 35.2556 39.4203 42.2018 43.8841C42.6082 44.1429 42.6325 44.7075 42.2624 45.0074C40.9035 46.0955 39.5143 47.207 38.1432 48.2891C37.8885 48.4891 37.5366 48.495 37.2697 48.3185C35.5286 47.1247 33.6237 46.1484 31.5792 45.4426C31.0454 45.2603 30.4994 45.0957 29.9473 44.9486C29.7593 44.9016 29.5652 44.8487 29.3771 44.8016L29.3043 44.784C29.1041 44.7428 28.8978 44.6957 28.6976 44.6546C28.5035 44.6134 28.3094 44.5781 28.1153 44.5369C27.9151 44.5017 27.7027 44.4664 27.4965 44.4311C27.2902 44.3958 27.0779 44.3664 26.8716 44.3429C26.6593 44.3135 26.453 44.2899 26.2407 44.2664C26.0284 44.2429 25.816 44.2252 25.6037 44.2076C25.3914 44.19 25.173 44.1782 24.9606 44.1664C24.5299 44.1429 24.0931 44.1312 23.6563 44.1312C22.5765 44.1312 21.5149 44.2017 20.4714 44.337C19.9375 44.4076 19.4158 44.4958 18.8941 44.5958C18.5544 44.6605 18.2147 44.7369 17.881 44.8192C17.2197 44.978 16.5706 45.1662 15.9336 45.378C5.53557 48.8596 -1.57442 59.1634 0.300147 70.7669C1.88958 80.6472 10.1219 88.4339 20.344 89.7807C32.8931 91.4329 43.8534 83.5382 46.6347 72.5264C46.6358 72.5218 46.6368 72.5179 46.638 72.5133C46.6592 72.4285 46.8932 71.4825 47.0611 70.3493C47.0793 70.2435 75.3797 71.2786 81.2278 69.8141C86.1114 68.7908 90.267 66.4148 92.5116 60.9865L92.0912 62.0427C92.0856 62.0568 92.0851 62.0698 92.0993 62.0752V62.0752C92.1146 62.0811 92.1412 62.0781 92.1473 62.0628L93.8038 57.9519L93.8523 57.8249C93.859 57.8074 93.8542 57.7894 93.8367 57.7828V57.7828C93.8204 57.7766 93.8087 57.757 93.8151 57.7407C94.5934 55.7511 95.3176 53.8085 95.9817 51.9649C98.4568 45.0721 100.071 39.5791 100.404 38.4264C100.441 38.3147 100.495 38.2147 100.58 38.1324V38.1324C100.772 37.946 101.078 37.9526 101.247 38.1602C102.719 39.9676 107.266 45.7977 110.159 49.483C110.378 49.7653 110.341 50.1652 110.074 50.4122C104.736 55.3112 101.751 62.5921 102.94 70.4964C104.444 80.5531 112.804 88.5103 123.202 89.8042C139.018 91.7744 152.279 78.5888 149.671 63.1743ZM115.273 21.524C116.189 21.524 117.172 21.8651 118.125 22.5238C119.611 23.5471 120.812 25.1879 121.522 27.1523C121.94 28.3108 122.135 29.4812 122.135 30.5751C122.135 32.363 121.607 33.9509 120.66 34.9507C120.302 35.3212 119.653 35.1741 119.465 34.6978L114.713 22.483C114.54 22.04 114.798 21.524 115.273 21.524V21.524ZM30.372 76.8539C30.0505 77.0597 29.7168 77.2538 29.3771 77.4302C29.0374 77.6067 28.6855 77.7714 28.3276 77.9184C27.9818 78.0595 27.6239 78.1889 27.2659 78.2948V78.2948C27.2343 78.305 27.2012 78.3111 27.1692 78.3201C26.9972 78.3685 26.8252 78.4164 26.6532 78.4594C25.6886 78.7006 24.6877 78.8241 23.6503 78.8241C22.8192 78.8241 22.0062 78.7417 21.2176 78.5829C15.2299 77.4067 10.8438 71.9667 11.5839 65.6679C12.1906 60.4984 16.3219 56.264 21.618 55.4347C27.3751 54.5349 32.5256 57.5402 34.6975 62.1569C34.7702 62.3098 34.6368 62.4803 34.4669 62.4568L24.5724 61.31V61.31C24.4006 61.2878 24.3272 61.5048 24.2739 61.6696L22.3005 67.7776C22.2218 68.0213 22.0681 68.3843 22.3156 68.4497V68.4497C25.8646 69.326 29.6258 69.3084 35.2192 69.6789C35.3587 69.6907 35.4558 69.8141 35.4254 69.9435C34.6792 72.8135 32.8411 75.2601 30.372 76.8539ZM49.1237 64.1592C49.1237 64.1609 49.1223 64.1622 49.1206 64.162L47.2552 63.9448C47.1581 63.933 47.0793 63.8624 47.0671 63.7624C46.6121 60.6572 45.502 57.746 43.8883 55.1701C43.6456 54.7878 43.7184 54.2938 44.0703 53.9997C45.0773 53.1646 46.0965 52.3001 47.1157 51.4238C47.4797 51.1062 48.056 51.2179 48.2622 51.6473C49.8517 54.9584 50.8951 57.1285 51.5806 58.5576C52.2904 60.0397 52.8668 61.5747 53.3703 63.1332C53.4673 63.4331 53.5826 63.7448 53.7039 64.0624C53.7585 64.2035 53.6493 64.3623 53.4916 64.3506L49.1419 64.1565H49.1265C49.1249 64.1565 49.1237 64.1577 49.1237 64.1592V64.1592ZM95.284 42.7432C95.011 43.5842 94.7198 44.484 94.3801 45.5015C94.2527 45.8955 93.8645 46.1543 93.4398 46.1366C88.6715 45.919 62.1243 44.9369 59.7947 57.8342C59.4368 59.8103 59.3762 61.4806 59.5339 62.892C59.6673 64.0918 57.9444 64.5799 57.4045 63.4919C57.3985 63.4802 57.3863 63.4625 57.3803 63.4449C56.4437 61.5304 56.2767 59.4924 56.2503 59.0387C56.2467 58.9761 56.2458 58.9144 56.2458 58.8517V58.8517C55.7484 47.2776 57.9323 43.7665 58.8908 42.7961C59.2189 42.4726 60.285 42.4303 60.428 42.426C60.4389 42.4257 60.4493 42.4255 60.4602 42.4253L94.5742 41.8316C95.0717 41.8257 95.4296 42.2845 95.284 42.7432ZM124.349 78.6712C119.271 77.8831 115.207 73.9662 114.375 69.0437C113.126 61.6923 118.98 55.2995 126.339 55.2995C133.03 55.2995 138.472 60.5807 138.472 67.0618C138.472 74.1838 131.92 79.8415 124.349 78.6712Z" fill="#999999"/>
</svg>
